<svg aria-hidden="true" xmlns="http://www.w3.org/2000/svg" xmlns:xlink="http://www.w3.org/1999/xlink">

	<symbol viewBox="0 0 18 18" id="user" xmlns="http://www.w3.org/2000/svg">
		<path
			d="M12.7921 10.5846L12.724 10.6409L12.8074 10.6703C15.9844 11.788 17.95 14.2732 17.95 17.0001C17.95 17.2521 17.8499 17.4937 17.6718 17.6719C17.4936 17.85 17.252 17.9501 17 17.9501C16.748 17.9501 16.5064 17.85 16.3282 17.6719C16.1501 17.4937 16.05 17.2521 16.05 17.0001C16.05 14.694 13.6633 11.9501 9 11.9501C4.33674 11.9501 1.95 14.694 1.95 17.0001C1.95 17.2521 1.84991 17.4937 1.67175 17.6719C1.49359 17.85 1.25196 17.9501 1 17.9501C0.748044 17.9501 0.506408 17.85 0.328249 17.6719C0.150089 17.4937 0.05 17.2521 0.05 17.0001C0.05 14.2732 2.01758 11.788 5.19161 10.6703L5.27497 10.6409L5.20687 10.5846C4.26329 9.80401 3.58354 8.75129 3.26039 7.57009C2.93725 6.38889 2.98643 5.13675 3.40125 3.98454C3.81606 2.83233 4.5763 1.83617 5.57821 1.13202C6.58012 0.42786 7.77489 0.05 8.9995 0.05C10.2241 0.05 11.4189 0.42786 12.4208 1.13202C13.4227 1.83617 14.1829 2.83233 14.5978 3.98454C15.0126 5.13675 15.0618 6.38889 14.7386 7.57009C14.4155 8.75129 13.7357 9.80401 12.7921 10.5846ZM6.13622 3.13633C5.3767 3.89586 4.95 4.92599 4.95 6.00012C4.95 7.07424 5.3767 8.10438 6.13622 8.8639C6.89574 9.62342 7.92587 10.0501 9 10.0501C10.0741 10.0501 11.1043 9.62342 11.8638 8.8639C12.6233 8.10438 13.05 7.07424 13.05 6.00012C13.05 4.92599 12.6233 3.89586 11.8638 3.13633C11.1043 2.37681 10.0741 1.95012 9 1.95012C7.92587 1.95012 6.89574 2.37681 6.13622 3.13633Z"
			fill="" stroke="" stroke-width="0.1" />
	</symbol>

	<symbol viewBox="0 0 16 16" id="search" xmlns="http://www.w3.org/2000/svg">
		<path fill-rule="evenodd" clip-rule="evenodd"
			d="M10.0817 11.057C7.6446 13.009 4.07719 12.8553 1.81801 10.5962C-0.606004 8.17214 -0.606004 4.24203 1.81801 1.81801C4.24203 -0.606005 8.17214 -0.606004 10.5962 1.81801C12.8553 4.07719 13.009 7.64459 11.057 10.0817L15 14.1772C15.2693 14.4466 15.2693 14.7307 15 15C14.7307 15.2693 14.2693 15.092 14 14.8226L10.0817 11.057ZM2.79336 9.62081C0.908015 7.73546 0.908015 4.67871 2.79336 2.79336C4.67871 0.908015 7.73546 0.908016 9.62081 2.79336C11.5048 4.67733 11.5062 7.73097 9.62496 9.61666L9.62079 9.62079L9.61666 9.62495C7.73098 11.5062 4.67733 11.5048 2.79336 9.62081Z" />
	</symbol>

	<symbol viewBox="0 0 19 22" id="cart" xmlns="http://www.w3.org/2000/svg">
		<path
			d="M4.29167 7.48317H4.44167V7.33317V5.24984C4.44167 3.90828 4.9746 2.62168 5.92322 1.67306C6.87184 0.724434 8.15845 0.191504 9.5 0.191504C10.8416 0.191504 12.1282 0.724434 13.0768 1.67306C14.0254 2.62168 14.5583 3.90828 14.5583 5.24984V7.33317V7.48317H14.7083H17.8333C18.0698 7.48317 18.2966 7.57711 18.4638 7.74433C18.6311 7.91155 18.725 8.13835 18.725 8.37484V20.8748C18.725 21.1113 18.6311 21.3381 18.4638 21.5053C18.2966 21.6726 18.0698 21.7665 17.8333 21.7665H1.16667C0.930182 21.7665 0.703383 21.6726 0.536163 21.5053C0.368943 21.3381 0.275 21.1113 0.275 20.8748V8.37484C0.275 8.13835 0.368943 7.91155 0.536163 7.74433C0.703383 7.57711 0.930182 7.48317 1.16667 7.48317H4.29167ZM4.44167 9.4165V9.2665H4.29167H2.20833H2.05833V9.4165V19.8332V19.9832H2.20833H16.7917H16.9417V19.8332V9.4165V9.2665H16.7917H14.7083H14.5583V9.4165V11.3498H12.775V9.4165V9.2665H12.625H6.375H6.225V9.4165V11.3498H4.44167V9.4165ZM6.225 7.33317V7.48317H6.375H12.625H12.775V7.33317V5.24984C12.775 4.38125 12.43 3.54824 11.8158 2.93406C11.2016 2.31988 10.3686 1.97484 9.5 1.97484C8.63142 1.97484 7.79841 2.31988 7.18422 2.93406C6.57004 3.54824 6.225 4.38125 6.225 5.24984V7.33317Z"
			fill="" stroke="" stroke-width="0.3" />
	</symbol>

	<symbol viewBox="0 0 24 20" id="box" xmlns="http://www.w3.org/2000/svg">
		<path
			d="M2.32141 0.0931411C2.2237 0.190852 2.20043 0.414192 2.27488 0.558433C2.36794 0.735243 2.53544 0.744549 5.08524 0.739896C6.44389 0.735243 7.60712 0.721285 7.67226 0.702673C7.83977 0.656144 7.95609 0.404886 7.8956 0.228076C7.86769 0.153629 7.81185 0.0698765 7.76532 0.0466119C7.70949 0.0186944 6.67654 8.27312e-05 5.04802 8.27312e-05C2.47496 8.27312e-05 2.41447 8.27312e-05 2.32141 0.0931411Z" />
		<path
			d="M10.1011 0.107018C9.93821 0.279175 9.98008 0.586267 10.1709 0.679325C10.2174 0.702591 11.013 0.730507 11.9436 0.744467L13.628 0.767731L10.1429 2.77779L6.65325 4.7925H3.46135H0.264793L0.129858 4.92744C-0.0376469 5.09494 -0.0422998 5.2671 0.111246 5.42065L0.222916 5.53697H3.29849H6.36942V7.58425V9.63154H4.41985C2.52146 9.63154 2.47028 9.63619 2.3493 9.72925C2.17714 9.86418 2.17714 10.1434 2.3493 10.2783C2.47028 10.3714 2.52146 10.376 4.41985 10.376H6.36942V12.4233V14.4706H3.29849H0.222916L0.111246 14.5869C-0.0422998 14.7404 -0.0376469 14.9126 0.129858 15.0801L0.264793 15.215H3.46135H6.6579L10.7804 17.5973C13.2697 19.0351 14.968 19.9889 15.0564 19.9982C15.1867 20.0168 15.4147 19.8959 16.4988 19.2724C17.2107 18.8583 19.0812 17.7834 20.6539 16.8761C22.2266 15.9688 23.5852 15.1639 23.669 15.0848L23.8179 14.9498V10.0038V5.05772L23.669 4.91813C23.5852 4.84369 21.6543 3.70837 19.3743 2.3916L15.2332 0H12.716H10.1988L10.1011 0.107018ZM16.2243 1.43775L17.3084 2.06124L17.1781 2.14034C16.6198 2.48466 9.73348 6.43498 9.69625 6.43498C9.66368 6.43498 7.56987 5.24849 7.49542 5.188C7.48612 5.18335 8.61678 4.51798 10.008 3.71768C11.3992 2.91738 13.1022 1.93096 13.7908 1.53081C14.4841 1.12601 15.0704 0.800301 15.0936 0.804955C15.1216 0.809607 15.6287 1.09344 16.2243 1.43775ZM18.9044 2.98252C19.6163 3.39663 19.714 3.46642 19.6442 3.51295C19.4906 3.61997 12.2088 7.81225 12.153 7.82621C12.1251 7.83551 11.7342 7.63078 11.2829 7.37487C10.6734 7.0259 10.4826 6.89562 10.5245 6.8584C10.557 6.83048 11.9715 6.00692 13.6745 5.02515C15.3775 4.04338 17.0525 3.08023 17.3968 2.8755C17.7411 2.67543 18.0389 2.51258 18.0575 2.51258C18.0715 2.51258 18.453 2.72661 18.9044 2.98252ZM21.6263 4.55521C22.5243 5.07633 22.6919 5.188 22.6221 5.22988C22.5755 5.25314 20.8726 6.23491 18.8392 7.4121C16.8059 8.58463 15.1262 9.54778 15.1076 9.55244C15.0518 9.57105 12.8882 8.30546 12.9207 8.27289C12.9393 8.25427 14.0328 7.62148 15.3495 6.8584C16.6663 6.09532 18.3553 5.12286 19.0951 4.69479C19.8396 4.26207 20.4678 3.91776 20.4957 3.92241C20.5236 3.92706 21.0308 4.21089 21.6263 4.55521ZM23.0176 14.6334C22.9524 14.6939 15.6194 18.9234 15.5124 18.9653C15.4519 18.9932 15.4426 18.4767 15.4519 14.6055L15.4659 10.2178L19.2208 8.04955C21.2867 6.8584 22.9943 5.86733 23.0129 5.84406C23.0315 5.82545 23.0548 7.78433 23.0641 10.1945C23.0734 13.6703 23.0594 14.5962 23.0176 14.6334ZM8.25385 6.48617L9.32402 7.10966L9.33798 8.98013C9.34263 10.2132 9.3659 10.8785 9.39847 10.9157C9.48687 11.0228 12.032 12.4698 12.1297 12.4698C12.1809 12.4698 12.2879 12.4186 12.3577 12.3581L12.488 12.2465L12.502 10.6133C12.5066 9.71529 12.5252 8.98013 12.5438 8.98013C12.5578 8.98013 13.051 9.25465 13.6326 9.59431L14.6981 10.2085V14.5962V18.9886L14.5958 18.9327C14.5353 18.9001 12.9579 17.9928 11.0875 16.9134C9.217 15.8292 7.55591 14.8754 7.40237 14.7916L7.11389 14.6334V10.2457C7.11389 7.83551 7.12784 5.86267 7.15111 5.86267C7.16972 5.86267 7.66758 6.14185 8.25385 6.48617ZM10.9525 8.04489L11.7435 8.50553L11.7575 9.97585L11.7668 11.4508L11.4969 11.2973C11.348 11.2135 10.9712 10.9948 10.6594 10.818L10.0918 10.4923V9.03596C10.0918 8.24031 10.1057 7.58425 10.129 7.58425C10.1476 7.58425 10.5198 7.79363 10.9525 8.04489Z" />
	</symbol>

	<symbol viewBox="0 0 13 12" id="arrow45" xmlns="http://www.w3.org/2000/svg">
		<path
			d="M12.1066 0.999843C12.1066 0.723701 11.8827 0.499843 11.6066 0.499843L7.1066 0.499843C6.83046 0.499843 6.6066 0.723701 6.6066 0.999843C6.6066 1.27599 6.83046 1.49984 7.1066 1.49984L11.1066 1.49984L11.1066 5.49984C11.1066 5.77599 11.3305 5.99984 11.6066 5.99984C11.8827 5.99984 12.1066 5.77599 12.1066 5.49984L12.1066 0.999843ZM1.35355 11.96L11.9602 1.3534L11.253 0.64629L0.646447 11.2529L1.35355 11.96Z" />
	</symbol>

	<symbol viewBox="0 0 14 25" id="svg-arrow" xmlns="http://www.w3.org/2000/svg">
		<path fill-rule="evenodd" clip-rule="evenodd"
			d="M13.5303 0.46967C13.2374 0.176777 12.7626 0.176777 12.4697 0.46967L0.96967 11.9697C0.676777 12.2626 0.676777 12.7374 0.96967 13.0303L12.4697 24.5303C12.7626 24.8232 13.2374 24.8232 13.5303 24.5303C13.8232 24.2374 13.8232 23.7626 13.5303 23.4697L2.56066 12.5L13.5303 1.53033C13.8232 1.23744 13.8232 0.762563 13.5303 0.46967Z" />
	</symbol>

	<symbol viewBox="0 0 45 30" id="visa" xmlns="http://www.w3.org/2000/svg">
		<path
			d="M0 3.75C0 1.67893 1.67893 0 3.75 0H41.25C43.3211 0 45 1.67893 45 3.75V26.25C45 28.3211 43.3211 30 41.25 30H3.75C1.67893 30 0 28.3211 0 26.25V3.75Z"
			fill="white" />
		<path
			d="M38.7278 9.40771H36.3704C35.6577 9.40771 35.1094 9.62701 34.7805 10.3397L30.2849 20.5919H33.4647C33.4647 20.5919 34.0129 19.2213 34.1226 18.8924C34.4515 18.8924 37.5765 18.8924 38.0151 18.8924C38.1248 19.2761 38.3989 20.5371 38.3989 20.5371H41.2498L38.7278 9.40771ZM34.9998 16.5897C35.2739 15.9318 36.2059 13.4647 36.2059 13.4647C36.2059 13.5196 36.48 12.8068 36.5897 12.4231L36.809 13.4099C36.809 13.4099 37.4121 16.0963 37.5217 16.6446H34.9998V16.5897Z"
			fill="#3362AB" />
		<path
			d="M30.5045 16.9187C30.5045 19.2214 28.4211 20.7564 25.1865 20.7564C23.8159 20.7564 22.5001 20.4823 21.7874 20.1534L22.226 17.6314L22.6097 17.7959C23.5966 18.2345 24.2545 18.399 25.4606 18.399C26.3378 18.399 27.2698 18.07 27.2698 17.3025C27.2698 16.8091 26.8861 16.4801 25.6799 15.9319C24.5286 15.3836 22.9935 14.5064 22.9935 12.9165C22.9935 10.7235 25.1317 9.24329 28.147 9.24329C29.2983 9.24329 30.2852 9.46258 30.8882 9.73671L30.4496 12.149L30.2303 11.9297C29.6821 11.7104 28.9694 11.4911 27.9277 11.4911C26.7764 11.5459 26.2282 12.0393 26.2282 12.4779C26.2282 12.9714 26.8861 13.3551 27.9277 13.8485C29.6821 14.6709 30.5045 15.6029 30.5045 16.9187Z"
			fill="#3362AB" />
		<path
			d="M3.75 9.51745L3.80482 9.29816H8.51974C9.17763 9.29816 9.67105 9.51745 9.83553 10.2302L10.8772 15.1644C9.83553 12.5328 7.42325 10.3946 3.75 9.51745Z"
			fill="#F9B50B" />
		<path
			d="M17.5105 9.40785L12.7408 20.5372H9.50615L6.76492 11.2171C8.73861 12.478 10.3833 14.4517 10.9864 15.8223L11.3154 16.9736L14.2759 9.35303H17.5105V9.40785Z"
			fill="#3362AB" />
		<path d="M18.7724 9.35303H21.7878L19.8689 20.5372H16.8535L18.7724 9.35303Z" fill="#3362AB" />
	</symbol>

	<symbol viewBox="0 0 45 30" id="mastercard" xmlns="http://www.w3.org/2000/svg">
		<path
			d="M0 3.75C0 1.67893 1.67893 0 3.75 0H41.25C43.3211 0 45 1.67893 45 3.75V26.25C45 28.3211 43.3211 30 41.25 30H3.75C1.67893 30 0 28.3211 0 26.25V3.75Z"
			fill="white" />
		<path d="M27.1944 6.11941L17.5109 6.15271L17.8043 23.8807L27.4878 23.8474L27.1944 6.11941Z" fill="#FF5F00" />
		<path
			d="M18.1479 15.0525C18.088 11.4468 19.7032 8.24298 22.2332 6.16482C20.3235 4.66628 17.9294 3.76515 15.3341 3.77404C9.1858 3.7951 4.29541 8.86015 4.39909 15.0996C4.50278 21.3391 9.56095 26.3701 15.7093 26.349C18.3046 26.3401 20.6685 25.4227 22.5281 23.9113C19.9299 21.882 18.2078 18.6583 18.1479 15.0525Z"
			fill="#EB001B" />
		<path
			d="M40.5995 14.9006C40.7032 21.1401 35.8128 26.2052 29.6645 26.2262C27.0692 26.2351 24.6751 25.334 22.7654 23.8355C25.3263 21.7572 26.9106 18.5535 26.8507 14.9477C26.7908 11.342 25.0692 8.14961 22.4705 6.08902C24.3301 4.57756 26.694 3.66014 29.2893 3.65125C35.4376 3.63019 40.4963 8.69253 40.5995 14.9006Z"
			fill="#F79E1B" />
	</symbol>

	<symbol viewBox="0 0 45 30" id="apple" xmlns="http://www.w3.org/2000/svg">
		<path
			d="M0 3.75C0 1.67893 1.67893 0 3.75 0H41.25C43.3211 0 45 1.67893 45 3.75V26.25C45 28.3211 43.3211 30 41.25 30H3.75C1.67893 30 0 28.3211 0 26.25V3.75Z"
			fill="white" />
		<path
			d="M34.8848 23.558C36.6131 23.558 37.4266 22.8986 38.1371 20.8996L41.25 12.1686H39.4477L37.3603 18.9234H37.3237L35.2362 12.1778H33.3829L36.3859 20.4879L36.2251 20.9933C36.1115 21.7168 35.4619 22.233 34.7308 22.1796C34.5912 22.1796 34.3206 22.1651 34.2108 22.1506V23.523C34.4342 23.5535 34.6599 23.5679 34.8848 23.5672V23.558ZM28.8786 19.1857C27.9333 19.1857 27.3333 18.7283 27.3333 18.036C27.3333 17.3186 27.9119 16.9008 29.0181 16.8345L30.9882 16.7102V17.3552C30.9447 18.418 30.0474 19.2452 28.9846 19.2017C28.9488 19.2002 28.9137 19.1971 28.8786 19.1941V19.1857ZM28.4029 20.5405C29.4756 20.5694 30.4789 20.0106 31.0179 19.0828H31.0545V20.4551H32.6952V14.7714C32.6952 13.1231 31.377 12.0611 29.3475 12.0611C27.4651 12.0611 26.073 13.1376 26.0219 14.6174H27.6192C27.8097 13.8649 28.5249 13.3686 29.2964 13.4525C30.3805 13.4525 30.9882 13.958 30.9882 14.8881V15.5178L28.7772 15.6497C26.7188 15.774 25.6057 16.6164 25.6057 18.0817C25.6041 19.5677 26.7538 20.5489 28.4021 20.5489L28.4029 20.5405ZM18.8951 10.5279H20.9383C22.4768 10.5279 23.3558 11.3483 23.3558 12.7915C23.3558 14.2347 22.4768 15.0619 20.9314 15.0619H18.8951V10.5279ZM17.1225 9.03365V20.4528H18.8951V16.56H21.3492C23.3482 16.6675 25.0552 15.1343 25.1627 13.1353C25.1688 13.0217 25.1696 12.9089 25.165 12.7953C25.2595 10.8184 23.734 9.13963 21.7571 9.04433C21.6405 9.03899 21.5246 9.03975 21.4079 9.04509L17.1225 9.03365ZM11.2391 11.1645C10.2205 11.1058 9.34913 11.7432 8.86577 11.7432C8.38241 11.7432 7.63526 11.1943 6.82941 11.2095C5.76206 11.237 4.78925 11.8278 4.2731 12.7625C3.17449 14.6525 3.98721 17.4505 5.04922 18.9882C5.56918 19.7506 6.19282 20.5855 7.01239 20.5557C7.78851 20.5267 8.09651 20.0503 9.03426 20.0503C9.972 20.0503 10.2503 20.5557 11.0706 20.5405C11.9199 20.526 12.4551 19.7781 12.9766 19.0157C13.3441 18.4759 13.63 17.8851 13.8259 17.2622C12.8249 16.8246 12.1761 15.8388 12.1707 14.7463C12.186 13.7826 12.6907 12.8937 13.511 12.3882C12.988 11.6456 12.1486 11.1897 11.2406 11.1577L11.2391 11.1645ZM10.6033 10.1559C10.1573 10.7178 9.47492 11.0403 8.75751 11.0273C8.71176 10.3274 8.94963 9.639 9.41698 9.11599C9.88204 8.57622 10.5377 8.23772 11.2467 8.17139C11.297 8.89109 11.066 9.60164 10.6017 10.1536"
			fill="#272727" />
	</symbol>

	<symbol viewBox="0 0 45 30" id="google" xmlns="http://www.w3.org/2000/svg">
		<path
			d="M0 3.75C0 1.67893 1.67893 0 3.75 0H41.25C43.3211 0 45 1.67893 45 3.75V26.25C45 28.3211 43.3211 30 41.25 30H3.75C1.67893 30 0 28.3211 0 26.25V3.75Z"
			fill="white" />
		<path fill-rule="evenodd" clip-rule="evenodd"
			d="M21.4506 19.725V15.3282V15.3273H23.8312C24.8126 15.3279 25.6374 15.0198 26.3057 14.4029C26.981 13.8175 27.3585 12.9757 27.3393 12.0984C27.3527 11.2259 26.9758 10.3904 26.3057 9.80683C25.6433 9.1866 24.7525 8.84819 23.8312 8.86682H20.0098V19.725H21.4506ZM21.4541 13.9938V10.2035V10.2026H23.8704C24.409 10.188 24.9281 10.3978 25.2961 10.7788C25.6663 11.1272 25.8751 11.6058 25.8751 12.1056C25.8751 12.6054 25.6663 13.084 25.2961 13.4324C24.9236 13.8054 24.4061 14.0092 23.8704 13.9938H21.4541Z"
			fill="#5F6368" />
		<path fill-rule="evenodd" clip-rule="evenodd"
			d="M33.1844 12.8797C32.5681 12.3287 31.7275 12.0532 30.6625 12.0532C29.2944 12.0532 28.2614 12.5384 27.5633 13.5087L28.8323 14.2824C29.3013 13.6251 29.9382 13.2965 30.743 13.2965C31.2562 13.2906 31.7527 13.4722 32.1338 13.805C32.5137 14.1091 32.7322 14.5624 32.7289 15.0396V15.3584C32.1752 15.0552 31.4706 14.9036 30.6151 14.9036C29.6127 14.9047 28.8115 15.1323 28.2112 15.5863C27.611 16.0403 27.3109 16.6516 27.3109 17.4204C27.2979 18.1204 27.6115 18.7888 28.1647 19.2397C28.7339 19.7249 29.4412 19.9675 30.2866 19.9675C31.277 19.9675 32.0705 19.543 32.6672 18.6939H32.7298V19.7249H34.108V15.1462C34.1086 14.1862 33.8007 13.4307 33.1844 12.8797ZM29.2767 18.3609C28.9749 18.1503 28.7969 17.8114 28.7988 17.4512C28.7988 17.0466 28.9948 16.7096 29.3895 16.4324C29.7803 16.1592 30.2683 16.0226 30.8536 16.0226C31.6573 16.0226 32.2837 16.1959 32.733 16.5424C32.733 17.1281 32.4943 17.6384 32.017 18.0733C31.5871 18.4895 31.0043 18.7238 30.3963 18.7248C29.9909 18.7321 29.5954 18.6036 29.2767 18.3609Z"
			fill="#5F6368" />
		<path fill-rule="evenodd" clip-rule="evenodd"
			d="M42.0215 12.296L37.2103 23H35.7229L37.5083 19.2547L34.3447 12.296H35.9109L38.1974 17.6328H38.2288L40.4527 12.296H42.0215Z"
			fill="#5F6368" />
		<path fill-rule="evenodd" clip-rule="evenodd"
			d="M15.63 14.3799C15.6305 13.9549 15.5934 13.5305 15.519 13.1116H9.44238V15.514H12.9228C12.7789 16.2894 12.314 16.9741 11.6359 17.4096V18.9691H13.713C14.9293 17.8835 15.63 16.2781 15.63 14.3799Z"
			fill="#4285F4" />
		<path fill-rule="evenodd" clip-rule="evenodd"
			d="M9.44561 20.4762C11.1845 20.4762 12.6486 19.9235 13.7163 18.9705L11.6391 17.411C11.061 17.7905 10.3164 18.0071 9.44561 18.0071C7.76492 18.0071 6.33839 16.9103 5.82827 15.4323H3.68848V17.0394C4.78223 19.1463 7.00979 20.4761 9.44561 20.4762Z"
			fill="#34A853" />
		<path fill-rule="evenodd" clip-rule="evenodd"
			d="M5.82592 15.4324C5.55624 14.6579 5.55624 13.8192 5.82592 13.0447V11.4376H3.68612C2.77129 13.1999 2.77129 15.2772 3.68612 17.0395L5.82592 15.4324Z"
			fill="#FBBC04" />
		<path fill-rule="evenodd" clip-rule="evenodd"
			d="M9.44562 10.4696C10.3645 10.455 11.2524 10.7911 11.9174 11.4052L13.7565 9.62485C12.5904 8.56448 11.0454 7.98232 9.44562 8.00041C7.00979 8.00052 4.78223 9.33032 3.68848 11.4373L5.82828 13.0444C6.33839 11.5664 7.76492 10.4696 9.44562 10.4696Z"
			fill="#EA4335" />
	</symbol>

	<symbol viewBox="0 0 35 35" id="facebook" xmlns="http://www.w3.org/2000/svg">
		<path
			d="M35 17.5C35 7.83501 27.165 0 17.5 0C7.83501 0 0 7.83501 0 17.5C0 26.2346 6.39946 33.4746 14.7656 34.7874V22.5586H10.3223V17.5H14.7656V13.6445C14.7656 9.25859 17.3783 6.83594 21.3756 6.83594C23.2897 6.83594 25.293 7.17773 25.293 7.17773V11.4844H23.0863C20.9125 11.4844 20.2344 12.8334 20.2344 14.2188V17.5H25.0879L24.312 22.5586H20.2344V34.7874C28.6005 33.4746 35 26.2346 35 17.5Z" />
		<path
			d="M24.312 22.5586L25.0879 17.5H20.2344V14.2188C20.2344 12.8348 20.9125 11.4844 23.0863 11.4844H25.293V7.17773C25.293 7.17773 23.2904 6.83594 21.3756 6.83594C17.3783 6.83594 14.7656 9.25859 14.7656 13.6445V17.5H10.3223V22.5586H14.7656V34.7874C16.5775 35.0709 18.4225 35.0709 20.2344 34.7874V22.5586H24.312Z"
			fill="white" />
	</symbol>

	<symbol viewBox="0 0 35 35" id="instagram" xmlns="http://www.w3.org/2000/svg">
		<path
			d="M17.5 3.15137C22.1758 3.15137 22.7295 3.17187 24.5684 3.25391C26.2773 3.3291 27.2002 3.61621 27.8154 3.85547C28.6289 4.16992 29.2168 4.55273 29.8252 5.16113C30.4404 5.77637 30.8164 6.35742 31.1309 7.1709C31.3701 7.78613 31.6572 8.71582 31.7324 10.418C31.8145 12.2637 31.835 12.8174 31.835 17.4863C31.835 22.1621 31.8145 22.7158 31.7324 24.5547C31.6572 26.2637 31.3701 27.1865 31.1309 27.8018C30.8164 28.6152 30.4336 29.2031 29.8252 29.8115C29.21 30.4268 28.6289 30.8027 27.8154 31.1172C27.2002 31.3564 26.2705 31.6436 24.5684 31.7188C22.7227 31.8008 22.1689 31.8213 17.5 31.8213C12.8242 31.8213 12.2705 31.8008 10.4316 31.7188C8.72266 31.6436 7.79981 31.3564 7.18457 31.1172C6.37109 30.8027 5.7832 30.4199 5.17481 29.8115C4.55957 29.1963 4.18359 28.6152 3.86914 27.8018C3.62988 27.1865 3.34277 26.2568 3.26758 24.5547C3.18555 22.709 3.16504 22.1553 3.16504 17.4863C3.16504 12.8105 3.18555 12.2568 3.26758 10.418C3.34277 8.70898 3.62988 7.78613 3.86914 7.1709C4.18359 6.35742 4.56641 5.76953 5.17481 5.16113C5.79004 4.5459 6.37109 4.16992 7.18457 3.85547C7.79981 3.61621 8.72949 3.3291 10.4316 3.25391C12.2705 3.17187 12.8242 3.15137 17.5 3.15137ZM17.5 0C12.749 0 12.1543 0.0205078 10.2881 0.102539C8.42871 0.18457 7.15039 0.485351 6.04297 0.916016C4.8877 1.36719 3.91016 1.96191 2.93945 2.93945C1.96191 3.91016 1.36719 4.8877 0.916016 6.03613C0.485352 7.15039 0.18457 8.42188 0.102539 10.2812C0.0205078 12.1543 0 12.749 0 17.5C0 22.251 0.0205078 22.8457 0.102539 24.7119C0.18457 26.5713 0.485352 27.8496 0.916016 28.957C1.36719 30.1123 1.96191 31.0898 2.93945 32.0605C3.91016 33.0312 4.8877 33.6328 6.03613 34.0771C7.15039 34.5078 8.42188 34.8086 10.2813 34.8906C12.1475 34.9727 12.7422 34.9932 17.4932 34.9932C22.2441 34.9932 22.8389 34.9727 24.7051 34.8906C26.5645 34.8086 27.8428 34.5078 28.9502 34.0771C30.0986 33.6328 31.0762 33.0312 32.0469 32.0605C33.0176 31.0898 33.6191 30.1123 34.0635 28.9639C34.4941 27.8496 34.7949 26.5781 34.877 24.7188C34.959 22.8525 34.9795 22.2578 34.9795 17.5068C34.9795 12.7559 34.959 12.1611 34.877 10.2949C34.7949 8.43555 34.4941 7.15723 34.0635 6.0498C33.6328 4.8877 33.0381 3.91016 32.0606 2.93945C31.0898 1.96875 30.1123 1.36719 28.9639 0.922852C27.8496 0.492187 26.5781 0.191406 24.7188 0.109375C22.8457 0.0205078 22.251 0 17.5 0Z" />
		<path
			d="M17.5 8.51074C12.5371 8.51074 8.51074 12.5371 8.51074 17.5C8.51074 22.4629 12.5371 26.4893 17.5 26.4893C22.4629 26.4893 26.4893 22.4629 26.4893 17.5C26.4893 12.5371 22.4629 8.51074 17.5 8.51074ZM17.5 23.3311C14.2803 23.3311 11.6689 20.7197 11.6689 17.5C11.6689 14.2803 14.2803 11.6689 17.5 11.6689C20.7197 11.6689 23.3311 14.2803 23.3311 17.5C23.3311 20.7197 20.7197 23.3311 17.5 23.3311Z" />
		<path
			d="M28.9434 8.15528C28.9434 9.31739 28 10.2539 26.8447 10.2539C25.6826 10.2539 24.7461 9.31055 24.7461 8.15528C24.7461 6.99317 25.6895 6.05664 26.8447 6.05664C28 6.05664 28.9434 7 28.9434 8.15528Z" />
	</symbol>

	<symbol viewBox="0 0 35 35" id="pinterest" xmlns="http://www.w3.org/2000/svg">
		<path
			d="M17.5 0C7.83398 0 0 7.83398 0 17.5C0 24.917 4.61426 31.2471 11.1221 33.7969C10.9717 32.4092 10.8281 30.29 11.1836 28.7793C11.5049 27.4121 13.2344 20.084 13.2344 20.084C13.2344 20.084 12.708 19.0381 12.708 17.4863C12.708 15.0527 14.1162 13.2344 15.873 13.2344C17.3633 13.2344 18.0879 14.3555 18.0879 15.7021C18.0879 17.2061 17.1309 19.4482 16.6387 21.5264C16.2285 23.2695 17.5137 24.6914 19.2295 24.6914C22.3398 24.6914 24.7324 21.4102 24.7324 16.6797C24.7324 12.4893 21.7246 9.55664 17.4248 9.55664C12.4482 9.55664 9.52246 13.2891 9.52246 17.1514C9.52246 18.6553 10.1035 20.2686 10.8281 21.1436C10.9717 21.3145 10.9922 21.4717 10.9512 21.6426C10.8213 22.1963 10.5205 23.3857 10.4658 23.625C10.3906 23.9463 10.2129 24.0146 9.87793 23.8574C7.69043 22.8389 6.32324 19.6465 6.32324 17.0762C6.32324 11.5527 10.3359 6.48731 17.8828 6.48731C23.9531 6.48731 28.6699 10.8145 28.6699 16.5977C28.6699 22.627 24.8691 27.4805 19.5918 27.4805C17.8213 27.4805 16.1533 26.5576 15.5791 25.4707C15.5791 25.4707 14.7041 28.8135 14.4922 29.6338C14.0957 31.1514 13.0293 33.0586 12.3184 34.2207C13.959 34.7266 15.6953 35 17.5 35C27.166 35 35 27.166 35 17.5C35 7.83398 27.166 0 17.5 0Z" />
	</symbol>

	<symbol viewBox="0 0 35 35" id="telegram" xmlns="http://www.w3.org/2000/svg">
		<path
			d="M17.5 35C27.165 35 35 27.165 35 17.5C35 7.83502 27.165 0 17.5 0C7.83502 0 0 7.83502 0 17.5C0 27.165 7.83502 35 17.5 35Z" />
		<path fill-rule="evenodd" clip-rule="evenodd"
			d="M7.92142 17.3152C13.023 15.0926 16.4249 13.6272 18.127 12.9192C22.987 10.8978 23.9968 10.5467 24.655 10.5351C24.7998 10.5325 25.1235 10.5684 25.3332 10.7386C25.5102 10.8822 25.5589 11.0763 25.5822 11.2125C25.6055 11.3487 25.6346 11.659 25.6115 11.9014C25.3481 14.6686 24.2086 21.3837 23.6288 24.483C23.3835 25.7944 22.9005 26.2341 22.4329 26.2771C21.4166 26.3707 20.6449 25.6055 19.6606 24.9603C18.1204 23.9507 17.2502 23.3222 15.7552 22.337C14.0274 21.1984 15.1474 20.5726 16.1321 19.5499C16.3898 19.2822 20.8675 15.2094 20.9541 14.84C20.965 14.7938 20.975 14.6215 20.8727 14.5306C20.7704 14.4396 20.6193 14.4707 20.5104 14.4955C20.3559 14.5305 17.8954 16.1569 13.1288 19.3744C12.4303 19.854 11.7977 20.0877 11.231 20.0754C10.6061 20.0619 9.40418 19.7221 8.51066 19.4317C7.41472 19.0754 6.54369 18.8871 6.61953 18.2821C6.65904 17.967 7.093 17.6447 7.92142 17.3152Z"
			fill="white" />
	</symbol>

	<symbol viewBox="0 0 45 45" id="youtube" xmlns="http://www.w3.org/2000/svg">
		<path
			d="M44.104 11.5978C43.8496 10.6404 43.3482 9.76668 42.65 9.064C41.9518 8.36131 41.0813 7.85433 40.1256 7.59379C36.6075 6.64777 22.545 6.64777 22.545 6.64777C22.545 6.64777 8.48245 6.64777 4.96427 7.59379C4.00857 7.85433 3.13806 8.36131 2.43987 9.064C1.74167 9.76668 1.24028 10.6404 0.985862 11.5978C0.0449525 15.1313 0.0449524 22.5 0.0449524 22.5C0.0449524 22.5 0.0449525 29.8688 0.985862 33.4023C1.24028 34.3597 1.74167 35.2334 2.43987 35.9361C3.13806 36.6388 4.00857 37.1457 4.96427 37.4063C8.48245 38.3523 22.545 38.3523 22.545 38.3523C22.545 38.3523 36.6075 38.3523 40.1256 37.4063C41.0813 37.1457 41.9518 36.6388 42.65 35.9361C43.3482 35.2334 43.8496 34.3597 44.104 33.4023C45.045 29.8688 45.045 22.5 45.045 22.5C45.045 22.5 45.045 15.1313 44.104 11.5978Z" />
		<path d="M17.9423 29.1913V15.8089L29.7037 22.5001L17.9423 29.1913Z" fill="#FEFEFE" />
	</symbol>

	<symbol viewBox="0 0 25 24" id="help" xmlns="http://www.w3.org/2000/svg">
		<path fill-rule="evenodd" clip-rule="evenodd"
			d="M3.75 0H21.25C23.3175 0 25 1.6825 25 3.75V16.25C25 18.3175 23.3175 20 21.25 20H8.1925C7.96625 20 7.74375 20.0612 7.54875 20.1787L1.89375 23.5713C1.695 23.6912 1.4725 23.75 1.25 23.75C1.0375 23.75 0.825 23.6963 0.63375 23.5875C0.2425 23.3663 0 22.95 0 22.5V3.75C0 1.6825 1.6825 0 3.75 0ZM22.5 16.25C22.5 16.9387 21.9387 17.5 21.25 17.5H8.1925C7.51375 17.5 6.84625 17.685 6.2625 18.035L2.5 20.2925V3.75C2.5 3.06125 3.06125 2.5 3.75 2.5H21.25C21.9387 2.5 22.5 3.06125 22.5 3.75V16.25ZM6.25 10C6.25 9.31 6.81 8.75 7.5 8.75C8.19 8.75 8.75 9.31 8.75 10C8.75 10.69 8.19 11.25 7.5 11.25C6.81 11.25 6.25 10.69 6.25 10ZM12.5 8.75C11.81 8.75 11.25 9.31 11.25 10C11.25 10.69 11.81 11.25 12.5 11.25C13.19 11.25 13.75 10.69 13.75 10C13.75 9.31 13.19 8.75 12.5 8.75ZM17.5 8.75C16.81 8.75 16.25 9.31 16.25 10C16.25 10.69 16.81 11.25 17.5 11.25C18.19 11.25 18.75 10.69 18.75 10C18.75 9.31 18.19 8.75 17.5 8.75Z"
			fill="#272727" />
	</symbol>

	<symbol viewBox="0 0 32 23" id="faq" xmlns="http://www.w3.org/2000/svg">
		<path
			d="M9.58203 3.7406C7.63254 3.7406 6.62419 5.08507 6.38891 6.49677C6.3553 6.76566 6.59058 7.03456 6.85947 7.03456H7.59893C7.83422 7.03456 8.03589 6.8665 8.0695 6.63122C8.17033 6.09343 8.50645 5.42119 9.54842 5.42119C10.3887 5.42119 10.7248 5.85815 10.8593 6.12704C11.0609 6.53038 11.0273 6.96734 10.7921 7.26984C10.5568 7.57235 10.3215 7.74041 10.0862 7.94208C9.44758 8.37903 8.94341 8.8496 8.87618 10.1268C8.84257 10.3957 9.07785 10.631 9.34675 10.631H10.0862C10.3215 10.631 10.5568 10.4294 10.5568 10.1941C10.5904 9.65628 10.7248 9.55545 11.061 9.32016C11.3635 9.11849 11.7668 8.81599 12.1701 8.2782C12.7752 7.4379 12.876 6.32871 12.3718 5.35397C11.8676 4.34561 10.8593 3.7406 9.58203 3.7406Z"
			fill="#272727" />
		<path
			d="M9.71725 11.4713C9.14585 11.4713 8.70889 11.9419 8.70889 12.4797C8.70889 13.0511 9.17946 13.488 9.71725 13.488C10.2886 13.488 10.7256 13.0175 10.7256 12.4797C10.7256 11.9419 10.255 11.4713 9.71725 11.4713Z"
			fill="#272727" />
		<path
			d="M31.8345 21.4539L29.9522 17.3868C30.8261 15.7398 31.095 13.9248 30.8261 12.0762C30.2547 8.47969 27.3641 5.58908 23.7676 4.98407C21.6165 4.64795 19.4989 5.0849 17.7511 6.2277C17.3478 4.84962 16.6419 3.57237 15.6 2.49679C13.6505 0.547307 10.9279 -0.326601 8.13815 0.110353C4.57529 0.681754 1.65106 3.60598 1.07966 7.20245C0.777157 9.0511 1.07966 10.8997 1.95357 12.5131L0.104921 16.5801C-0.0967498 16.9835 0.00408574 17.4877 0.306592 17.7902C0.508263 17.9918 0.777157 18.1263 1.07966 18.1263C1.24772 18.1263 1.38217 18.0927 1.55023 18.0254L5.61726 16.1432C7.26424 17.0171 9.11289 17.286 10.9615 17.0171C12.1043 16.8154 13.2135 16.3785 14.1547 15.7735C15.0286 18.8994 17.7175 21.353 21.0115 21.8908C22.8601 22.1933 24.7088 21.8908 26.3557 21.0169L30.4228 22.8992C30.5572 22.9664 30.7253 23 30.8933 23C31.1622 23 31.4311 22.8992 31.6664 22.6639C31.9353 22.3614 32.0361 21.8908 31.8345 21.4539ZM10.6926 15.4037C9.07928 15.6726 7.46591 15.3701 6.05421 14.5298C5.81893 14.3954 5.55004 14.3954 5.28114 14.4962L2.18885 15.9079L3.60055 12.8156C3.70139 12.5803 3.70139 12.2778 3.56694 12.0425C2.72664 10.6308 2.45775 9.0511 2.69303 7.43773C3.1636 4.54711 5.48281 2.19429 8.37343 1.72372C8.74316 1.6565 9.1465 1.62288 9.51623 1.62288C11.3649 1.62288 13.0791 2.32873 14.3899 3.63959C15.4319 4.64795 16.0705 5.95881 16.3058 7.33689C16.3058 7.33689 16.3058 7.33689 16.2722 7.33689C14.558 9.15193 13.6841 11.5048 13.8522 13.992C12.9446 14.6979 11.8691 15.2021 10.6926 15.4037ZM26.6246 19.3699C26.5238 19.3363 26.3894 19.3027 26.2885 19.3027C26.1541 19.3027 25.986 19.3363 25.8852 19.4035C24.4735 20.2438 22.8937 20.5463 21.2468 20.2774C18.3561 19.8069 16.0033 17.454 15.5327 14.5634C15.1966 12.3114 15.9025 10.1267 17.4822 8.54692C19.062 6.96716 21.2804 6.26131 23.4987 6.63104C26.3894 7.10161 28.7086 9.45444 29.1791 12.3451C29.448 13.9584 29.1455 15.5718 28.3052 16.9499C28.1708 17.1852 28.1708 17.4541 28.2716 17.7229L29.6833 20.8152L26.6246 19.3699Z"
			fill="#272727" />
		<path
			d="M18.5227 12.1097C17.7833 12.1097 17.1782 12.7148 17.1782 13.4542C17.1782 14.1937 17.7833 14.7987 18.5227 14.7987C19.2622 14.7987 19.8672 14.1937 19.8672 13.4542C19.8672 12.7148 19.2622 12.1097 18.5227 12.1097Z"
			fill="#272727" />
		<path
			d="M22.3881 12.1097C21.6486 12.1097 21.0436 12.7148 21.0436 13.4542C21.0436 14.1937 21.6486 14.7987 22.3881 14.7987C23.1275 14.7987 23.7325 14.1937 23.7325 13.4542C23.7325 12.7148 23.1275 12.1097 22.3881 12.1097Z"
			fill="#272727" />
		<path
			d="M26.221 12.1097C25.4815 12.1097 24.8765 12.7148 24.8765 13.4542C24.8765 14.1937 25.4815 14.7987 26.221 14.7987C26.9604 14.7987 27.5654 14.1937 27.5654 13.4542C27.5654 12.7148 26.9604 12.1097 26.221 12.1097Z"
			fill="#272727" />
	</symbol>

	<symbol viewBox="0 0 26 21" fill="#fff" id="diamond" xmlns="http://www.w3.org/2000/svg">
		<path
			d="M1.55446 7.56937C0.965499 6.88607 0.906872 5.89306 1.41133 5.1452L3.48848 2.06585C3.87686 1.49007 4.53614 1.15701 5.23006 1.18601L21.3138 1.85834C22.0077 1.88735 22.6369 2.27427 22.9759 2.88045L24.7888 6.12242C25.2291 6.90977 25.0878 7.89442 24.4439 8.52619L14.0117 18.7614C13.187 19.5705 11.8503 19.5146 11.0961 18.6395L1.55446 7.56937Z"
			stroke="#272727" stroke-width="1.7" stroke-miterlimit="10" />
		<path d="M25.5357 7.45585L0.557968 6.41174" stroke="#272727" stroke-width="1.7" stroke-miterlimit="10" />
		<path
			d="M4.11362 1.13916L7.01656 4.87586C7.77533 5.85256 9.22981 5.91335 10.0674 5.00339L11.6713 3.26103C12.5089 2.35106 13.9634 2.41186 14.7222 3.38856L16.1751 5.2587C16.9338 6.2354 18.3883 6.2962 19.2259 5.38623L22.4306 1.90484"
			stroke="#272727" stroke-width="1.7" stroke-miterlimit="10" stroke-linecap="round" stroke-linejoin="round" />
		<path d="M17.6236 7.12526L12.4875 20.2553" stroke="#272727" stroke-width="1.7" stroke-miterlimit="10" />
		<path d="M8.46643 6.74243L12.4888 20.2553" stroke="#272727" stroke-width="1.7" stroke-miterlimit="10" />
	</symbol>

	<symbol viewBox="0 0 15 14" id="heart" xmlns="http://www.w3.org/2000/svg">
		<path fill-rule="evenodd" clip-rule="evenodd"
			d="M6.92013 13.1273C7.08057 13.2678 7.28645 13.3452 7.5 13.3452C7.71343 13.3452 7.91943 13.2678 8.07976 13.1275C8.6871 12.5964 9.27223 12.0977 9.78859 11.6578L9.7888 11.6576C11.2997 10.37 12.6045 9.25799 13.5124 8.16238C14.2142 7.31564 14.6567 6.4992 14.8629 5.65664L15 5.5L14.9351 5.30519C14.9786 5.04321 15 4.77801 15 4.50794C15 3.27541 14.5775 2.13833 13.8102 1.306C13.0337 0.463829 11.9681 0 10.8097 0C9.94389 0 9.15092 0.273743 8.45295 0.81356C8.10059 1.08604 7.78141 1.41953 7.5 1.80851C7.2187 1.41953 6.89941 1.08604 6.54716 0.81356C5.84919 0.273743 5.05623 0 4.19037 0C3.03188 0 1.96644 0.463829 1.18996 1.306C0.42263 2.13833 0 3.27541 0 4.50794C0 5.77652 0.472755 6.93775 1.48773 8.1625C2.39571 9.25804 3.70068 10.3702 5.21187 11.658L5.2145 11.6603C5.72994 12.0995 6.31416 12.5974 6.92013 13.1273Z" />
	</symbol>

	<symbol viewBox="0 0 12 12" id="cross" xmlns="http://www.w3.org/2000/svg">
		<path
			d="M12 0.695508L11.3043 0L6 5.30467L0.695647 0L0 0.695508L5.30435 6.00022L0 11.3045L0.695647 12L6 6.6957L11.3043 12L12 11.3045L6.69527 6.00022L12 0.695508Z"
			fill="#A5B6BA" />
	</symbol>

	<symbol viewBox="0 0 25 25" id="delivery" xmlns="http://www.w3.org/2000/svg">
		<circle cx="12.5" cy="12.5" r="11.5" fill="white" stroke-width="2" />
		<path fill-rule="evenodd" clip-rule="evenodd"
			d="M16.1033 5.37254C16.9293 5.00291 17.7345 5.79103 17.5271 6.59892L17.46 6.86025C16.4372 10.845 15.0645 14.7202 13.3586 18.4388C12.9336 19.3652 11.6654 19.1252 11.4547 18.2295L10.5368 14.3271C10.4434 13.9298 10.1137 13.6492 9.74195 13.6164L5.85381 13.2741C4.91476 13.1914 4.56541 11.9557 5.35499 11.4081C8.67033 9.10907 12.187 7.12511 15.8624 5.48035L16.1033 5.37254ZM16.3825 6.49143L16.3262 6.51666C12.8069 8.09156 9.43554 9.98306 6.2509 12.1693L9.84152 12.4855C10.7191 12.5627 11.4406 13.2106 11.642 14.0671L12.4798 17.6291C14.0865 14.0753 15.385 10.3775 16.3603 6.57797L16.3825 6.49143Z" />
	</symbol>

	<symbol viewBox="0 0 25 25" id="pay" xmlns="http://www.w3.org/2000/svg">
		<circle cx="12.5" cy="12.5" r="11.5" stroke-width="2" />
		<path
			d="M14.9953 15.3087C15.0452 15.3369 15.1021 15.3504 15.1593 15.3476C15.2166 15.3449 15.2719 15.3261 15.3189 15.2933L20.9126 11.3916C20.9548 11.3621 20.9889 11.3224 21.0116 11.2763C21.0343 11.2301 21.0449 11.1789 21.0425 11.1275C21.0401 11.0761 21.0247 11.0261 20.9977 10.9823C20.9707 10.9384 20.9331 10.9022 20.8883 10.8768L10.5405 5.0397C10.4939 5.01309 10.441 4.99939 10.3874 5.00002C10.3337 5.00065 10.2812 5.01558 10.2352 5.04327L4.14847 8.67098C4.1034 8.69886 4.0663 8.73792 4.04077 8.78437C4.01525 8.83082 4.00217 8.88307 4.00279 8.93607C4.00342 8.98907 4.01774 9.041 4.04435 9.08683C4.07097 9.13266 4.10899 9.17083 4.15471 9.19763L7.95626 11.342V12.4659L4.4534 10.4934C4.38309 10.4538 4.29994 10.4438 4.22224 10.4656C4.14455 10.4873 4.07867 10.539 4.0391 10.6093C3.99953 10.6796 3.98951 10.7628 4.01125 10.8405C4.03299 10.9182 4.0847 10.9841 4.15501 11.0236L7.95626 13.1641V14.2919L4.4534 12.3194C4.38309 12.2799 4.29994 12.2699 4.22224 12.2916C4.14455 12.3133 4.07867 12.365 4.0391 12.4354C3.99953 12.5057 3.98951 12.5888 4.01125 12.6665C4.03299 12.7442 4.0847 12.8101 4.15501 12.8497L14.9953 18.9608C15.0452 18.9889 15.1021 19.0024 15.1593 18.9997C15.2166 18.9969 15.2719 18.9781 15.3189 18.9453L20.9126 15.0436C20.9788 14.9974 21.024 14.9268 21.0381 14.8474C21.0523 14.7679 21.0343 14.686 20.9881 14.6198C20.9419 14.5536 20.8713 14.5085 20.7918 14.4943C20.7124 14.4801 20.6305 14.4981 20.5643 14.5443L15.1275 18.3367L10.9996 16.01V14.8827L14.9953 17.1348C15.0452 17.1629 15.1021 17.1764 15.1593 17.1737C15.2166 17.1709 15.2719 17.1521 15.3189 17.1193L20.9126 13.2176C20.9788 13.1714 21.024 13.1008 21.0381 13.0213C21.0523 12.9419 21.0343 12.86 20.9881 12.7938C20.9419 12.7276 20.8713 12.6824 20.7918 12.6683C20.7124 12.6541 20.6305 12.6721 20.5643 12.7183L15.1275 16.5106L10.9996 14.184V13.055L14.9953 15.3087ZM17.1872 11.7631L15.6759 12.8176C15.4719 12.7358 15.2528 12.6988 15.0333 12.7092C14.8138 12.7195 14.5992 12.777 14.4038 12.8776L12.3912 11.7429L13.6209 11.0088L15.4614 9.91272L17.1435 10.8631C17.0726 11.0042 17.0395 11.1612 17.0471 11.3189C17.0548 11.4765 17.103 11.6295 17.1872 11.7631ZM15.1275 14.6846L11.1827 12.4609L11.7868 12.1011L14.2588 13.4946C14.3087 13.5227 14.3656 13.5362 14.4228 13.5335C14.4801 13.5307 14.5354 13.5119 14.5824 13.4791C14.7239 13.3812 14.8901 13.325 15.0619 13.3169C15.2338 13.3088 15.4045 13.3492 15.5546 13.4334C15.6045 13.4619 15.6615 13.4756 15.7189 13.473C15.7763 13.4704 15.8317 13.4515 15.8788 13.4185L17.8327 12.0549C17.8747 12.0256 17.9086 11.9862 17.9313 11.9404C17.954 11.8945 17.9648 11.8436 17.9626 11.7925C17.9604 11.7414 17.9454 11.6916 17.9189 11.6478C17.8924 11.604 17.8553 11.5676 17.811 11.542C17.7654 11.5165 17.7271 11.4797 17.6998 11.4351C17.6724 11.3906 17.657 11.3398 17.655 11.2875C17.6524 11.2365 17.6629 11.1857 17.6855 11.1399C17.7082 11.0942 17.7422 11.0549 17.7842 11.026C17.8264 10.9965 17.8604 10.9569 17.883 10.9107C17.9057 10.8646 17.9163 10.8135 17.9138 10.7621C17.9114 10.7107 17.8959 10.6609 17.8689 10.6171C17.842 10.5733 17.8043 10.5371 17.7596 10.5118L16.0639 9.55383L16.67 9.19283L20.1678 11.1692L15.1275 14.6846ZM10.5709 12.1159L8.79914 11.115L13.2328 8.47419L14.2847 7.8477L16.0587 8.8475L10.5709 12.1159ZM9.38879 10.0536L8.13101 9.34384C8.20899 9.20379 8.2492 9.04587 8.24769 8.88558C8.24618 8.7253 8.203 8.56816 8.12239 8.42961L9.81646 7.42089C10.0075 7.49868 10.2123 7.5372 10.4186 7.53413C10.6249 7.53107 10.8285 7.48649 11.0172 7.40306L12.4678 8.22107L11.135 9.01484L9.38879 10.0536ZM10.3951 5.6567L13.6731 7.50327L13.0703 7.86222L11.1735 6.79263C11.1269 6.76601 11.074 6.75231 11.0202 6.75294C10.9665 6.75356 10.914 6.7685 10.8679 6.79619C10.7296 6.87973 10.5715 6.92502 10.4099 6.92742C10.2483 6.92982 10.0889 6.88925 9.9481 6.80986C9.90158 6.78387 9.84902 6.77061 9.79574 6.77145C9.74245 6.77228 9.69033 6.78717 9.64465 6.81462L7.47776 8.10508C7.43173 8.13248 7.39375 8.17154 7.36766 8.21832C7.34157 8.2651 7.32829 8.31794 7.32916 8.3715C7.33003 8.42506 7.34503 8.47744 7.37264 8.52334C7.40025 8.56924 7.43948 8.60704 7.48638 8.63292C7.53216 8.65774 7.57045 8.69438 7.59727 8.73902C7.62408 8.78366 7.63844 8.83467 7.63885 8.88674C7.64016 8.9414 7.6269 8.99543 7.60042 9.04327C7.57394 9.09111 7.5352 9.13104 7.48819 9.15895C7.4427 9.18645 7.4052 9.2254 7.37944 9.27189C7.35368 9.3184 7.34056 9.37083 7.34137 9.42399C7.34218 9.47714 7.3569 9.52915 7.38407 9.57484C7.41124 9.62053 7.4499 9.65831 7.49621 9.68441L8.78721 10.4132L8.18448 10.7721L4.9108 8.92537L10.3951 5.6567ZM8.56494 14.6347V11.6815L10.391 12.7117V15.6666L8.56494 14.6347Z" />
		<path
			d="M14.9557 11.6961C15.1238 11.6961 15.26 11.5598 15.26 11.3917C15.26 11.2237 15.1238 11.0874 14.9557 11.0874C14.7876 11.0874 14.6514 11.2237 14.6514 11.3917C14.6514 11.5598 14.7876 11.6961 14.9557 11.6961Z" />
		<path
			d="M9.78237 8.95682C9.95045 8.95682 10.0867 8.82056 10.0867 8.65248C10.0867 8.4844 9.95045 8.34814 9.78237 8.34814C9.61428 8.34814 9.47803 8.4844 9.47803 8.65248C9.47803 8.82056 9.61428 8.95682 9.78237 8.95682Z" />
	</symbol>

	<symbol viewBox="0 0 25 25" id="order" xmlns="http://www.w3.org/2000/svg">
		<circle cx="12.5" cy="12.5" r="11.5" stroke-width="2" />
		<path d="M7.89453 11.842L11.513 15.4604L17.763 9.21045" stroke-width="2" />
	</symbol>

	<symbol viewBox="0 0 15 20" id="lock" xmlns="http://www.w3.org/2000/svg">
		<path
			d="M5.98175 13.7228C5.98175 12.8943 6.65332 12.2228 7.48175 12.2228C8.31018 12.2228 8.98175 12.8943 8.98175 13.7228C8.98175 14.5512 8.31018 15.2228 7.48175 15.2228C6.65332 15.2228 5.98175 14.5512 5.98175 13.7228Z"
			fill="#1C1C1C" />
		<path fill-rule="evenodd" clip-rule="evenodd"
			d="M3.1034 8.31991L2.78796 5.48093C2.74752 5.11696 2.74752 4.74962 2.78796 4.38564L2.81073 4.18074C3.05221 2.00735 4.76082 0.287695 6.9326 0.0321904C7.29743 -0.0107301 7.66603 -0.0107301 8.03085 0.0321904C10.2026 0.287695 11.9112 2.00735 12.1527 4.18074L12.1755 4.38564C12.2159 4.74962 12.2159 5.11696 12.1755 5.48093L11.8601 8.3199L12.5467 8.37471C13.6294 8.46115 14.5135 9.27505 14.689 10.347C15.0551 12.5826 15.0551 14.8629 14.689 17.0986C14.5135 18.1705 13.6294 18.9844 12.5467 19.0708L11.0505 19.1902C8.67514 19.3799 6.28841 19.3799 3.91303 19.1902L2.4169 19.0708C1.33417 18.9844 0.450069 18.1705 0.274554 17.0986C-0.091518 14.8629 -0.091518 12.5826 0.274554 10.347C0.450069 9.27505 1.33417 8.46115 2.4169 8.37471L3.1034 8.31991ZM7.10786 1.52192C7.35625 1.49269 7.6072 1.49269 7.85559 1.52192C9.33422 1.69587 10.4975 2.86667 10.6619 4.34639L10.6847 4.55129C10.7129 4.80517 10.7129 5.0614 10.6847 5.31529L10.3635 8.20574C8.44431 8.08215 6.51915 8.08216 4.59995 8.20574L4.27879 5.31529C4.25058 5.0614 4.25058 4.80517 4.27879 4.55129L4.30155 4.34639C4.46597 2.86667 5.62924 1.69587 7.10786 1.52192ZM10.9312 9.75052C8.63522 9.56723 6.32833 9.56723 4.0324 9.75052L2.53627 9.86996C2.14134 9.90149 1.81886 10.1984 1.75484 10.5893C1.41505 12.6645 1.41505 14.7811 1.75484 16.8562C1.81886 17.2472 2.14134 17.544 2.53627 17.5756L4.0324 17.695C6.32833 17.8783 8.63523 17.8783 10.9312 17.695L12.4273 17.5756C12.8222 17.544 13.1447 17.2472 13.2087 16.8562C13.5485 14.7811 13.5485 12.6645 13.2087 10.5893C13.1447 10.1984 12.8222 9.90149 12.4273 9.86996L10.9312 9.75052Z"
			fill="#1C1C1C" />
	</symbol>

	<symbol viewBox="0 0 18 18" id="phone" xmlns="http://www.w3.org/2000/svg">
		<path
			d="M17.1885 13.1118L14.5194 10.8421C14.507 10.8317 14.494 10.8221 14.4804 10.8134C13.7801 10.3677 12.881 10.4664 12.2939 11.0533L10.8387 12.5085C10.7379 12.6094 10.5875 12.6392 10.4557 12.5848C8.81238 11.9051 7.46243 10.8817 6.44331 9.54341C5.66617 8.52292 5.38601 7.71199 5.34907 7.59774C5.34468 7.57329 5.33767 7.54898 5.32779 7.52523C5.27327 7.39339 5.30307 7.24329 5.40414 7.14249L6.85928 5.68694C7.44636 5.09986 7.54496 4.20076 7.09919 3.50052C7.09562 3.49489 7.09192 3.4894 7.08807 3.48391L5.16052 0.805302C4.55407 -0.135539 3.23311 -0.277675 2.4403 0.514989L2.14889 0.806401C2.14876 0.806675 2.14848 0.80695 2.14821 0.807088L1.1078 1.84749C-0.13283 3.08826 -0.335803 4.95264 0.520993 7.23944C1.25488 9.19831 2.72403 11.3421 4.65776 13.2759C6.63722 15.2553 8.83902 16.7517 10.8575 17.4893C12.8553 18.2192 14.9805 18.3091 16.4847 16.8048L17.4659 15.8237C18.2551 15.0344 18.1174 13.7221 17.1885 13.1118ZM14.0838 11.3945L16.7505 13.6622C16.7628 13.6726 16.7758 13.6822 16.7894 13.6909C17.3591 14.0536 17.4453 14.8501 16.9686 15.3266L16.8958 15.3995L12.3474 11.9941L12.7911 11.5505C13.1378 11.2036 13.6663 11.1408 14.0838 11.3945ZM4.57316 1.19161C4.57673 1.19724 4.58044 1.20287 4.58429 1.20823L6.51101 3.88587C6.77276 4.30486 6.7122 4.83976 6.36215 5.18981L5.93217 5.61992L2.8549 1.09465L2.93744 1.01212C3.41603 0.533528 4.21185 0.624028 4.57316 1.19161ZM11.0986 16.8289C9.17437 16.1257 7.06349 14.6873 5.15489 12.7787C3.29051 10.9145 1.87863 8.85965 1.17921 6.9928C0.654203 5.5915 0.301954 3.6476 1.60493 2.34476L2.34884 1.60071L5.42611 6.12598L4.90715 6.64522C4.61189 6.93993 4.51906 7.37609 4.66641 7.76445C4.77737 8.21984 5.28796 9.16507 5.80308 9.8616C6.56114 10.8866 7.93704 12.3037 10.1869 13.2345C10.5823 13.3981 11.0331 13.3083 11.3358 13.0058L11.8452 12.4963L16.3936 15.9017L15.9875 16.3077C14.5908 17.7046 12.558 17.3621 11.0986 16.8289Z"
			fill="#1C1C1C" />
	</symbol>

	<symbol viewBox="0 0 19 14" id="mail" xmlns="http://www.w3.org/2000/svg">
		<path
			d="M17.4805 0H2.48048C1.65318 0 0.980469 0.672715 0.980469 1.50001V12C0.980469 12.8273 1.65318 13.5 2.48048 13.5H17.4805C18.3078 13.5 18.9805 12.8273 18.9805 12V1.50001C18.9805 0.672715 18.3078 0 17.4805 0ZM2.48048 0.749988H17.4805C17.5358 0.749988 17.5844 0.770133 17.6363 0.781524C16.3377 1.97005 12.0316 5.90938 10.5247 7.26708C10.4068 7.37329 10.2167 7.49999 9.9805 7.49999C9.74429 7.49999 9.55423 7.37329 9.43593 7.26673C7.92917 5.90924 3.62285 1.9697 2.32442 0.781594C2.37638 0.770203 2.42518 0.749988 2.48048 0.749988ZM1.73046 12V1.50001C1.73046 1.42654 1.75261 1.35988 1.77243 1.29273C2.76637 2.20243 5.77096 4.95109 7.71918 6.72272C5.77729 8.39078 2.77193 11.2401 1.77008 12.1955C1.75239 12.1317 1.73046 12.0693 1.73046 12ZM17.4805 12.75H2.48048C2.42057 12.75 2.36731 12.7291 2.31138 12.7158C3.34662 11.7289 6.37112 8.86314 8.27887 7.23108C8.52757 7.45668 8.75475 7.66237 8.93383 7.82374C9.24293 8.10281 9.60472 8.25001 9.98047 8.25001C10.3562 8.25001 10.718 8.10278 11.0267 7.82409C11.2059 7.66266 11.4332 7.45678 11.6821 7.23108C13.5899 8.86296 16.614 11.7285 17.6496 12.7158C17.5936 12.7291 17.5404 12.75 17.4805 12.75ZM18.2305 12C18.2305 12.0693 18.2085 12.1317 18.1909 12.1955C17.1887 11.2396 14.1836 8.3906 12.2418 6.72275C14.1901 4.95113 17.1942 2.20271 18.1885 1.29266C18.2083 1.35981 18.2305 1.4265 18.2305 1.49998V12Z"
			fill="#1C1C1C" />
	</symbol>

	<symbol viewBox="0 0 15 15" id="edit" xmlns="http://www.w3.org/2000/svg">
		<path fill-rule="evenodd" clip-rule="evenodd"
			d="M14.7574 2.47227C14.9075 2.69961 14.8825 3.00856 14.6824 3.2087L7.50365 10.3874C7.43006 10.461 7.33819 10.5137 7.23751 10.54L4.24773 11.3209C4.15022 11.3464 4.0497 11.3459 3.95526 11.3218C3.85486 11.2963 3.76132 11.2441 3.68556 11.1684C3.53853 11.0213 3.48047 10.8074 3.53302 10.6062L4.31396 7.61641C4.33698 7.52831 4.38016 7.4413 4.43989 7.37304L11.6452 0.171549C11.7083 0.108478 11.7843 0.0612729 11.8669 0.0325116C11.9283 0.0111865 11.9932 0 12.0594 0C12.2147 0 12.3637 0.0617081 12.4735 0.171549L14.6824 2.38039C14.711 2.40898 14.736 2.43979 14.7574 2.47227ZM13.4399 2.79455L12.0594 1.41402L5.40718 8.06622L4.9191 9.93483L6.78771 9.44674L13.4399 2.79455Z"
			fill="#1C1C1C" />
		<path
			d="M13.3412 11.6441C13.5547 9.81855 13.6226 7.98028 13.545 6.14664C13.5413 6.05884 13.5743 5.97342 13.6364 5.91128L14.4043 5.14336C14.4988 5.04894 14.6601 5.10888 14.6689 5.24211C14.8133 7.42067 14.7586 9.60913 14.5047 11.7802C14.3199 13.3597 13.0514 14.5975 11.4801 14.7731C8.77292 15.0756 5.97454 15.0756 3.26734 14.7731C1.69604 14.5975 0.427532 13.3597 0.242798 11.7802C-0.0809326 9.01228 -0.0809326 6.21609 0.242798 3.4482C0.427532 1.86872 1.69604 0.630915 3.26734 0.455299C5.32103 0.22577 7.42718 0.170362 9.5062 0.289075C9.64019 0.296726 9.70128 0.458862 9.60638 0.553761L8.83125 1.32889C8.76979 1.39035 8.68552 1.42335 8.59865 1.42042C6.85995 1.36178 5.10942 1.42813 3.39746 1.61946C2.35872 1.73556 1.52664 2.55525 1.40628 3.58428C1.09312 6.26176 1.09312 8.96662 1.40628 11.6441C1.52664 12.6731 2.35872 13.4928 3.39746 13.6089C6.01818 13.9018 8.72928 13.9018 11.35 13.6089C12.3887 13.4928 13.2208 12.6731 13.3412 11.6441Z"
			fill="#1C1C1C" />
	</symbol>

	<symbol viewBox="0 0 18 17" id="exit" xmlns="http://www.w3.org/2000/svg">
		<path
			d="M9.75 15C9.33579 15 9 15.3358 9 15.75C9 16.1642 9.33579 16.5 9.75 16.5H15.75C16.7165 16.5 17.5 15.7165 17.5 14.75V2.75C17.5 1.7835 16.7165 1 15.75 1H9.75C9.33579 1 9 1.33579 9 1.75C9 2.16421 9.33579 2.5 9.75 2.5L15.75 2.5C15.8881 2.5 16 2.61193 16 2.75L16 14.75C16 14.8881 15.8881 15 15.75 15H9.75Z"
			fill="#1C1C1C" fill-opacity="0.9" />
		<path fill-rule="evenodd" clip-rule="evenodd"
			d="M1 9.86522C1 10.5556 1.55964 11.1152 2.25 11.1152H6.8626C6.86912 11.1886 6.87595 11.262 6.88308 11.3354L6.93711 11.8913C7.01954 12.7394 7.92014 13.2473 8.68856 12.8791C10.3228 12.0959 11.9014 10.9206 13.1549 9.6118C13.6191 9.12712 13.6191 8.36278 13.1549 7.87811L13.0557 7.77454C11.8022 6.46578 10.3228 5.39403 8.68856 4.61084C7.92014 4.24258 7.01954 4.75049 6.93711 5.5986L6.88308 6.15448C6.87595 6.22787 6.86912 6.30128 6.8626 6.3747L2.25 6.3747C1.55964 6.3747 1 6.93435 1 7.6247V9.86522ZM8.30321 10.2807C8.26071 9.90373 7.94132 9.61522 7.55797 9.61522H2.5L2.5 7.8747H7.55797C7.95406 7.8747 8.28186 7.56671 8.30652 7.17139C8.32466 6.88051 8.34784 6.58987 8.37605 6.29959L8.39173 6.13824C9.69657 6.81069 10.8842 7.6909 11.9077 8.74496C11.4803 9.18505 11.0244 9.59484 10.5432 9.97186C9.87201 10.4978 9.15176 10.96 8.39173 11.3517L8.37605 11.1903C8.34784 10.9 8.32466 10.6094 8.30652 10.3185C8.30572 10.3058 8.30462 10.2932 8.30321 10.2807Z"
			fill="#1C1C1C" fill-opacity="0.9" />
		<path
			d="M9.75 15C9.33579 15 9 15.3358 9 15.75C9 16.1642 9.33579 16.5 9.75 16.5H15.75C16.7165 16.5 17.5 15.7165 17.5 14.75V2.75C17.5 1.7835 16.7165 1 15.75 1H9.75C9.33579 1 9 1.33579 9 1.75C9 2.16421 9.33579 2.5 9.75 2.5L15.75 2.5C15.8881 2.5 16 2.61193 16 2.75L16 14.75C16 14.8881 15.8881 15 15.75 15H9.75Z"
			stroke="white" stroke-linejoin="round" />
		<path fill-rule="evenodd" clip-rule="evenodd"
			d="M1 9.86522C1 10.5556 1.55964 11.1152 2.25 11.1152H6.8626C6.86912 11.1886 6.87595 11.262 6.88308 11.3354L6.93711 11.8913C7.01954 12.7394 7.92014 13.2473 8.68856 12.8791C10.3228 12.0959 11.9014 10.9206 13.1549 9.6118C13.6191 9.12712 13.6191 8.36278 13.1549 7.87811L13.0557 7.77454C11.8022 6.46578 10.3228 5.39403 8.68856 4.61084C7.92014 4.24258 7.01954 4.75049 6.93711 5.5986L6.88308 6.15448C6.87595 6.22787 6.86912 6.30128 6.8626 6.3747L2.25 6.3747C1.55964 6.3747 1 6.93435 1 7.6247V9.86522ZM8.30321 10.2807C8.26071 9.90373 7.94132 9.61522 7.55797 9.61522H2.5L2.5 7.8747H7.55797C7.95406 7.8747 8.28186 7.56671 8.30652 7.17139C8.32466 6.88051 8.34784 6.58987 8.37605 6.29959L8.39173 6.13824C9.69657 6.81069 10.8842 7.6909 11.9077 8.74496C11.4803 9.18505 11.0244 9.59484 10.5432 9.97186C9.87201 10.4978 9.15176 10.96 8.39173 11.3517L8.37605 11.1903C8.34784 10.9 8.32466 10.6094 8.30652 10.3185C8.30572 10.3058 8.30462 10.2932 8.30321 10.2807Z"
			stroke="white" stroke-linejoin="round" />
	</symbol>

	<symbol viewBox="0 0 17 15" id="calendar" xmlns="http://www.w3.org/2000/svg">
		<path
			d="M15.0877 1.27594H14.031V0.438468C14.031 0.197311 13.8337 0 13.5925 0C13.3514 0 13.154 0.197311 13.154 0.438468V1.27594H8.85706V0.438468C8.85706 0.197311 8.65975 0 8.41859 0C8.17743 0 7.98012 0.197311 7.98012 0.438468V1.27594H3.63929V0.438468C3.63929 0.197311 3.44198 0 3.20082 0C2.95966 0 2.76235 0.197311 2.76235 0.438468V1.27594H1.74949C0.784858 1.27594 0 2.08711 0 3.05174V13.2461C0 14.2151 0.780474 15 1.74949 15H15.0833C16.0523 15 16.8328 14.2151 16.8328 13.2505V3.05174C16.8372 2.08711 16.0523 1.27594 15.0877 1.27594ZM15.9602 13.2461C15.9602 13.7284 15.5744 14.1187 15.0921 14.1231H15.0877H1.74949C1.26717 14.1231 0.876937 13.7328 0.876937 13.2505V13.2461V3.05174C0.876937 2.56504 1.26717 2.15288 1.74949 2.15288H2.76235V2.78866C2.76235 3.02982 2.95966 3.22713 3.20082 3.22713C3.44198 3.22713 3.63929 3.02982 3.63929 2.78866V2.15288H7.98012V2.78866C7.98012 3.02982 8.17743 3.22713 8.41859 3.22713C8.65975 3.22713 8.85706 3.02982 8.85706 2.78866V2.15288H13.154V2.78866C13.154 3.02982 13.3514 3.22713 13.5925 3.22713C13.8337 3.22713 14.031 3.02982 14.031 2.78866V2.15288H15.0877C15.5744 2.15288 15.9602 2.56942 15.9602 3.05174V13.2461Z"
			fill="#1C1C1C" />
		<path
			d="M7.26438 5.00293H6.49706C6.2559 5.00293 6.05859 5.20024 6.05859 5.4414C6.05859 5.68256 6.2559 5.87987 6.49706 5.87987H7.26438C7.50554 5.87987 7.70285 5.68256 7.70285 5.4414C7.70285 5.20024 7.50554 5.00293 7.26438 5.00293Z"
			fill="#1C1C1C" />
		<path
			d="M10.3181 5.00293H9.55077C9.30962 5.00293 9.1123 5.20024 9.1123 5.4414C9.1123 5.68256 9.30962 5.87987 9.55077 5.87987H10.3181C10.5592 5.87987 10.7566 5.68256 10.7566 5.4414C10.7566 5.20024 10.5636 5.00293 10.3181 5.00293Z"
			fill="#1C1C1C" />
		<path
			d="M13.3943 5.00293H12.6269C12.3858 5.00293 12.1885 5.20024 12.1885 5.4414C12.1885 5.68256 12.3858 5.87987 12.6269 5.87987H13.3943C13.6354 5.87987 13.8327 5.68256 13.8327 5.4414C13.8327 5.20024 13.6354 5.00293 13.3943 5.00293Z"
			fill="#1C1C1C" />
		<path
			d="M7.26438 8.02881H6.49706C6.2559 8.02881 6.05859 8.22612 6.05859 8.46728C6.05859 8.70843 6.2559 8.90575 6.49706 8.90575H7.26438C7.50554 8.90575 7.70285 8.70843 7.70285 8.46728C7.70285 8.22612 7.50554 8.02881 7.26438 8.02881Z"
			fill="#1C1C1C" />
		<path
			d="M4.19259 8.02881H3.42089C3.17973 8.02881 2.98242 8.22612 2.98242 8.46728C2.98242 8.70843 3.17973 8.90575 3.42089 8.90575H4.18821C4.42937 8.90575 4.62668 8.70843 4.62668 8.46728C4.62668 8.22612 4.43375 8.02881 4.19259 8.02881Z"
			fill="#1C1C1C" />
		<path
			d="M10.3181 8.02881H9.55077C9.30962 8.02881 9.1123 8.22612 9.1123 8.46728C9.1123 8.70843 9.30962 8.90575 9.55077 8.90575H10.3181C10.5592 8.90575 10.7566 8.70843 10.7566 8.46728C10.7566 8.22612 10.5636 8.02881 10.3181 8.02881Z"
			fill="#1C1C1C" />
		<path
			d="M13.3943 8.02881H12.6269C12.3858 8.02881 12.1885 8.22612 12.1885 8.46728C12.1885 8.70843 12.3858 8.90575 12.6269 8.90575H13.3943C13.6354 8.90575 13.8327 8.70843 13.8327 8.46728C13.8327 8.22612 13.6354 8.02881 13.3943 8.02881Z"
			fill="#1C1C1C" />
		<path
			d="M7.26438 11.0103H6.49706C6.2559 11.0103 6.05859 11.2076 6.05859 11.4487C6.05859 11.6899 6.2559 11.8872 6.49706 11.8872H7.26438C7.50554 11.8872 7.70285 11.6899 7.70285 11.4487C7.70285 11.2076 7.50554 11.0103 7.26438 11.0103Z"
			fill="#1C1C1C" />
		<path
			d="M4.19259 11.0103H3.42089C3.17973 11.0103 2.98242 11.2076 2.98242 11.4487C2.98242 11.6899 3.17973 11.8872 3.42089 11.8872H4.18821C4.42937 11.8872 4.62668 11.6899 4.62668 11.4487C4.62668 11.2076 4.43375 11.0103 4.19259 11.0103Z"
			fill="#1C1C1C" />
		<path
			d="M10.3181 11.0103H9.55077C9.30962 11.0103 9.1123 11.2076 9.1123 11.4487C9.1123 11.6899 9.30962 11.8872 9.55077 11.8872H10.3181C10.5592 11.8872 10.7566 11.6899 10.7566 11.4487C10.7566 11.2076 10.5636 11.0103 10.3181 11.0103Z"
			fill="#1C1C1C" />
	</symbol>

	<symbol viewBox="0 0 42 33" id="agree" xmlns="http://www.w3.org/2000/svg">
		<path d="M3.0293 15.1681L14.9764 27.115L39.0798 3.22119" stroke="#F6F7FA" fill="transparent" stroke-width="7"/>
	</symbol>

</svg>