<svg width="111" height="25" viewBox="0 0 111 25" fill="none" xmlns="http://www.w3.org/2000/svg">
<path d="M3.914 10.878C3.914 11.9887 4.06333 12.9873 4.362 13.874C4.66067 14.7513 5.08533 15.498 5.636 16.114C6.196 16.7207 6.868 17.1873 7.652 17.514C8.44533 17.8407 9.33667 18.004 10.326 18.004C11.3153 18.004 12.202 17.8407 12.986 17.514C13.7793 17.1873 14.4513 16.7207 15.002 16.114C15.5527 15.498 15.9773 14.7513 16.276 13.874C16.5747 12.9873 16.724 11.9887 16.724 10.878C16.724 9.76733 16.5747 8.77333 16.276 7.896C15.9773 7.00933 15.5527 6.258 15.002 5.642C14.4513 5.026 13.7793 4.55467 12.986 4.228C12.202 3.90133 11.3153 3.738 10.326 3.738C9.33667 3.738 8.44533 3.90133 7.652 4.228C6.868 4.55467 6.196 5.026 5.636 5.642C5.08533 6.258 4.66067 7.00933 4.362 7.896C4.06333 8.77333 3.914 9.76733 3.914 10.878ZM21.624 24.962H18.516C18.068 24.962 17.662 24.9013 17.298 24.78C16.9433 24.6587 16.6167 24.4347 16.318 24.108L13.35 20.832C12.874 20.9627 12.384 21.0607 11.88 21.126C11.3853 21.1913 10.8673 21.224 10.326 21.224C8.79533 21.224 7.4 20.9673 6.14 20.454C4.88 19.9313 3.79733 19.208 2.892 18.284C1.996 17.36 1.30067 16.268 0.806 15.008C0.311333 13.7387 0.0640001 12.362 0.0640001 10.878C0.0640001 9.394 0.311333 8.022 0.806 6.762C1.30067 5.49267 1.996 4.396 2.892 3.472C3.79733 2.548 4.88 1.82933 6.14 1.316C7.4 0.793333 8.79533 0.532 10.326 0.532C11.3527 0.532 12.3187 0.653333 13.224 0.895998C14.1293 1.12933 14.96 1.46533 15.716 1.904C16.472 2.33333 17.1487 2.86067 17.746 3.486C18.3527 4.102 18.866 4.79267 19.286 5.558C19.706 6.32333 20.0233 7.154 20.238 8.05C20.462 8.946 20.574 9.88867 20.574 10.878C20.574 11.7833 20.4807 12.6513 20.294 13.482C20.1073 14.3033 19.8367 15.0733 19.482 15.792C19.1367 16.5107 18.712 17.1733 18.208 17.78C17.704 18.3773 17.13 18.9047 16.486 19.362L21.624 24.962ZM32.2153 17.962C32.9433 17.962 33.5919 17.8407 34.1613 17.598C34.7399 17.3553 35.2253 17.0147 35.6173 16.576C36.0093 16.1373 36.3079 15.6053 36.5133 14.98C36.7279 14.3547 36.8353 13.6547 36.8353 12.88V0.755999H40.6013V12.88C40.6013 14.084 40.4053 15.1993 40.0133 16.226C39.6306 17.2433 39.0753 18.1253 38.3473 18.872C37.6286 19.6093 36.7513 20.188 35.7153 20.608C34.6793 21.0187 33.5126 21.224 32.2153 21.224C30.9086 21.224 29.7373 21.0187 28.7013 20.608C27.6653 20.188 26.7833 19.6093 26.0553 18.872C25.3366 18.1253 24.7813 17.2433 24.3893 16.226C24.0066 15.1993 23.8153 14.084 23.8153 12.88V0.755999H27.5813V12.866C27.5813 13.6407 27.6839 14.3407 27.8893 14.966C28.1039 15.5913 28.4073 16.128 28.7993 16.576C29.2006 17.0147 29.6859 17.3553 30.2553 17.598C30.8339 17.8407 31.4873 17.962 32.2153 17.962ZM48.8285 21H45.0485V0.755999H48.8285V21ZM70.627 0.755999V21H68.695C68.3964 21 68.1444 20.9533 67.939 20.86C67.743 20.7573 67.5517 20.5893 67.365 20.356L56.795 6.86C56.851 7.476 56.879 8.04533 56.879 8.568V21H53.561V0.755999H55.535C55.6937 0.755999 55.829 0.765332 55.941 0.783998C56.0624 0.793332 56.165 0.821332 56.249 0.867999C56.3424 0.905333 56.431 0.966 56.515 1.05C56.599 1.12467 56.6924 1.22733 56.795 1.358L67.407 14.91C67.379 14.5833 67.3557 14.2613 67.337 13.944C67.3184 13.6267 67.309 13.3327 67.309 13.062V0.755999H70.627ZM89.4753 3.85H83.3713V21H79.6053V3.85H73.5013V0.755999H89.4753V3.85ZM110.947 10.878C110.947 12.362 110.699 13.7387 110.205 15.008C109.719 16.268 109.029 17.36 108.133 18.284C107.237 19.208 106.159 19.9313 104.899 20.454C103.639 20.9673 102.239 21.224 100.699 21.224C99.1681 21.224 97.7727 20.9673 96.5127 20.454C95.2527 19.9313 94.1701 19.208 93.2647 18.284C92.3687 17.36 91.6734 16.268 91.1787 15.008C90.6841 13.7387 90.4367 12.362 90.4367 10.878C90.4367 9.394 90.6841 8.022 91.1787 6.762C91.6734 5.49267 92.3687 4.396 93.2647 3.472C94.1701 2.548 95.2527 1.82933 96.5127 1.316C97.7727 0.793333 99.1681 0.532 100.699 0.532C101.725 0.532 102.691 0.653333 103.597 0.895998C104.502 1.12933 105.333 1.46533 106.089 1.904C106.845 2.33333 107.521 2.86067 108.119 3.486C108.725 4.102 109.239 4.79267 109.659 5.558C110.079 6.32333 110.396 7.154 110.611 8.05C110.835 8.946 110.947 9.88867 110.947 10.878ZM107.097 10.878C107.097 9.76733 106.947 8.77333 106.649 7.896C106.35 7.00933 105.925 6.258 105.375 5.642C104.824 5.026 104.152 4.55467 103.359 4.228C102.575 3.90133 101.688 3.738 100.699 3.738C99.7094 3.738 98.8181 3.90133 98.0247 4.228C97.2407 4.55467 96.5687 5.026 96.0087 5.642C95.4581 6.258 95.0334 7.00933 94.7347 7.896C94.4361 8.77333 94.2867 9.76733 94.2867 10.878C94.2867 11.9887 94.4361 12.9873 94.7347 13.874C95.0334 14.7513 95.4581 15.498 96.0087 16.114C96.5687 16.7207 97.2407 17.1873 98.0247 17.514C98.8181 17.8407 99.7094 18.004 100.699 18.004C101.688 18.004 102.575 17.8407 103.359 17.514C104.152 17.1873 104.824 16.7207 105.375 16.114C105.925 15.498 106.35 14.7513 106.649 13.874C106.947 12.9873 107.097 11.9887 107.097 10.878Z" fill="white"/>
</svg>
