<svg width="454" height="100" viewBox="0 0 454 100" fill="none" xmlns="http://www.w3.org/2000/svg">
<path d="M16.2068 42.3496C16.2068 46.896 16.8175 50.9836 18.039 54.6132C19.2605 58.2043 20.9972 61.2607 23.2493 63.7822C25.5395 66.2657 28.2878 68.1756 31.4941 69.5129C34.7386 70.8502 38.3839 71.5186 42.43 71.5186C46.4759 71.5186 50.1023 70.8502 53.3086 69.5129C56.553 68.1756 59.3013 66.2657 61.5534 63.7822C63.8056 61.2607 65.5421 58.2043 66.7637 54.6132C67.9853 50.9836 68.5959 46.896 68.5959 42.3496C68.5959 37.8032 67.9853 33.7345 66.7637 30.1433C65.5421 26.5138 63.8056 23.4384 61.5534 20.9169C59.3013 18.3954 56.553 16.4661 53.3086 15.1289C50.1023 13.7918 46.4759 13.1232 42.43 13.1232C38.3839 13.1232 34.7386 13.7918 31.4941 15.1289C28.2878 16.4661 25.5395 18.3954 23.2493 20.9169C20.9972 23.4384 19.2605 26.5138 18.039 30.1433C16.8175 33.7345 16.2068 37.8032 16.2068 42.3496ZM88.6355 100H75.9247C74.0925 100 72.4321 99.7515 70.9434 99.255C69.4928 98.7585 68.1571 97.8416 66.9355 96.5043L54.7973 83.0946C52.8506 83.6296 50.8466 84.0307 48.7854 84.298C46.7622 84.5653 44.6438 84.6992 42.43 84.6992C36.17 84.6992 30.4635 83.6484 25.3105 81.5473C20.1575 79.4077 15.7297 76.447 12.0272 72.6648C8.36278 68.8825 5.51908 64.4126 3.49603 59.255C1.47299 54.0594 0.461472 48.4241 0.461472 42.3496C0.461472 36.2751 1.47299 30.659 3.49603 25.5014C5.51908 20.3056 8.36278 15.8166 12.0272 12.0344C15.7297 8.25215 20.1575 5.3104 25.3105 3.20917C30.4635 1.06972 36.17 0 42.43 0C46.6289 0 50.5795 0.496656 54.282 1.48996C57.9844 2.44507 61.3817 3.82043 64.4735 5.61605C67.5653 7.37343 70.3328 9.53201 72.7756 12.0917C75.2568 14.6132 77.3561 17.4403 79.0737 20.5731C80.7914 23.7058 82.0891 27.106 82.9671 30.7736C83.8832 34.4413 84.3413 38.2999 84.3413 42.3496C84.3413 46.0553 83.9597 49.6083 83.1962 53.0086C82.4326 56.3705 81.3259 59.5223 79.8753 62.4642C78.4632 65.4061 76.7262 68.1183 74.665 70.6017C72.6038 73.0467 70.2563 75.2055 67.6226 77.0774L88.6355 100ZM131.951 71.3467C134.928 71.3467 137.581 70.8502 139.909 69.8567C142.276 68.8633 144.261 67.4691 145.864 65.6734C147.467 63.8776 148.688 61.7 149.528 59.1404C150.406 56.5808 150.845 53.7155 150.845 50.5444V0.916901H166.247V50.5444C166.247 55.4728 165.445 60.0381 163.842 64.2407C162.277 68.4048 160.006 72.0151 157.029 75.0716C154.09 78.0896 150.502 80.4585 146.265 82.1777C142.028 83.8588 137.256 84.6992 131.951 84.6992C126.607 84.6992 121.816 83.8588 117.58 82.1777C113.343 80.4585 109.735 78.0896 106.758 75.0716C103.819 72.0151 101.548 68.4048 99.9447 64.2407C98.3796 60.0381 97.5972 55.4728 97.5972 50.5444V0.916901H112.999V50.4871C112.999 53.6582 113.419 56.5235 114.259 59.0831C115.136 61.6427 116.377 63.8395 117.98 65.6734C119.621 67.4691 121.606 68.8633 123.935 69.8567C126.301 70.8502 128.973 71.3467 131.951 71.3467ZM199.894 83.7822H184.435V0.916901H199.894V83.7822ZM289.043 0.916901V83.7822H281.142C279.921 83.7822 278.89 83.5911 278.05 83.2092C277.248 82.7888 276.466 82.1011 275.703 81.1461L232.474 25.9026C232.703 28.4241 232.818 30.7545 232.818 32.894V83.7822H219.248V0.916901H227.321C227.97 0.916901 228.524 0.955104 228.982 1.03151C229.478 1.06972 229.898 1.18433 230.241 1.37535C230.623 1.52817 230.986 1.7765 231.329 2.12034C231.673 2.42599 232.055 2.84621 232.474 3.38109L275.874 58.8539C275.76 57.5166 275.665 56.1985 275.588 54.8997C275.512 53.6009 275.473 52.3975 275.473 51.2894V0.916901H289.043ZM366.127 13.5817H341.164V83.7822H325.762V13.5817H300.798V0.916901H366.127V13.5817ZM453.94 42.3496C453.94 48.4241 452.926 54.0594 450.905 59.255C448.918 64.4126 446.096 68.8825 442.432 72.6648C438.767 76.447 434.358 79.4077 429.205 81.5473C424.052 83.6484 418.327 84.6992 412.029 84.6992C405.768 84.6992 400.061 83.6484 394.908 81.5473C389.755 79.4077 385.327 76.447 381.625 72.6648C377.96 68.8825 375.117 64.4126 373.093 59.255C371.071 54.0594 370.059 48.4241 370.059 42.3496C370.059 36.2751 371.071 30.659 373.093 25.5014C375.117 20.3056 377.96 15.8166 381.625 12.0344C385.327 8.25215 389.755 5.3104 394.908 3.20917C400.061 1.06972 405.768 0 412.029 0C416.225 0 420.175 0.496656 423.881 1.48996C427.582 2.44507 430.98 3.82043 434.072 5.61605C437.164 7.37343 439.929 9.53201 442.374 12.0917C444.853 14.6132 446.955 17.4403 448.672 20.5731C450.39 23.7058 451.687 27.106 452.566 30.7736C453.482 34.4413 453.94 38.2999 453.94 42.3496ZM438.195 42.3496C438.195 37.8032 437.581 33.7345 436.362 30.1433C435.14 26.5138 433.401 23.4384 431.152 20.9169C428.899 18.3954 426.15 16.4661 422.907 15.1289C419.701 13.7918 416.073 13.1232 412.029 13.1232C407.981 13.1232 404.336 13.7918 401.092 15.1289C397.885 16.4661 395.137 18.3954 392.847 20.9169C390.595 23.4384 388.858 26.5138 387.636 30.1433C386.415 33.7345 385.804 37.8032 385.804 42.3496C385.804 46.896 386.415 50.9836 387.636 54.6132C388.858 58.2043 390.595 61.2607 392.847 63.7822C395.137 66.2657 397.885 68.1756 401.092 69.5129C404.336 70.8502 407.981 71.5186 412.029 71.5186C416.073 71.5186 419.701 70.8502 422.907 69.5129C426.15 68.1756 428.899 66.2657 431.152 63.7822C433.401 61.2607 435.14 58.2043 436.362 54.6132C437.581 50.9836 438.195 46.896 438.195 42.3496Z" fill="white"/>
</svg>
