<svg width="143" height="32" viewBox="0 0 143 32" fill="none" xmlns="http://www.w3.org/2000/svg">
<g clip-path="url(#clip0_2_404)">
<path d="M5.01049 13.924C5.01049 15.3457 5.20163 16.6239 5.58393 17.7589C5.96623 18.8819 6.50979 19.8376 7.21465 20.6261C7.93145 21.4027 8.79161 21.9999 9.79513 22.4181C10.8106 22.8363 11.9515 23.0453 13.2179 23.0453C14.4842 23.0453 15.6191 22.8363 16.6227 22.4181C17.6381 21.9999 18.4982 21.4027 19.2031 20.6261C19.908 19.8376 20.4515 18.8819 20.8339 17.7589C21.2162 16.6239 21.4073 15.3457 21.4073 13.924C21.4073 12.5024 21.2162 11.2301 20.8339 10.1071C20.4515 8.97214 19.908 8.01043 19.2031 7.22195C18.4982 6.43347 17.6381 5.83017 16.6227 5.41203C15.6191 4.9939 14.4842 4.78483 13.2179 4.78483C11.9515 4.78483 10.8106 4.9939 9.79513 5.41203C8.79161 5.83017 7.93145 6.43347 7.21465 7.22195C6.50979 8.01043 5.96623 8.97214 5.58393 10.1071C5.20163 11.2301 5.01049 12.5024 5.01049 13.924ZM27.6793 31.9516H23.7011C23.1276 31.9516 22.6079 31.8739 22.142 31.7186C21.688 31.5633 21.27 31.2766 20.8876 30.8584L17.0886 26.6652C16.4793 26.8325 15.8521 26.9579 15.207 27.0415C14.5738 27.1251 13.9107 27.1669 13.2179 27.1669C11.2586 27.1669 9.47257 26.8383 7.85977 26.1813C6.24697 25.5123 4.86115 24.5864 3.70233 23.4037C2.55545 22.221 1.66543 20.8232 1.03225 19.2104C0.399075 17.5857 0.082489 15.8236 0.082489 13.924C0.082489 12.0245 0.399075 10.2684 1.03225 8.65555C1.66543 7.03081 2.55545 5.62707 3.70233 4.44435C4.86115 3.26163 6.24697 2.34174 7.85977 1.68467C9.47257 1.01566 11.2586 0.681152 13.2179 0.681152C14.532 0.681152 15.7685 0.836459 16.9273 1.14707C18.0861 1.44573 19.1494 1.87582 20.1171 2.43731C21.0847 2.98686 21.9509 3.66185 22.7155 4.46227C23.492 5.25075 24.1491 6.13481 24.6867 7.11443C25.2243 8.09406 25.6304 9.15731 25.9052 10.3042C26.1919 11.4511 26.3353 12.6577 26.3353 13.924C26.3353 15.0828 26.2159 16.1939 25.9769 17.2572C25.7379 18.3084 25.3916 19.294 24.9375 20.214C24.4956 21.1339 23.9519 21.982 23.3068 22.7586C22.6617 23.5231 21.927 24.1982 21.1027 24.7836L27.6793 31.9516ZM41.2362 22.9916C42.168 22.9916 42.9982 22.8363 43.727 22.5256C44.4677 22.215 45.089 21.779 45.5907 21.2175C46.0925 20.6559 46.4747 19.975 46.7376 19.1746C47.0123 18.3742 47.1498 17.4782 47.1498 16.4866V0.967871H51.9702V16.4866C51.9702 18.0277 51.7194 19.4553 51.2176 20.7695C50.7277 22.0716 50.017 23.2006 49.0851 24.1564C48.1652 25.1001 47.0422 25.8408 45.7162 26.3784C44.3901 26.9041 42.8967 27.1669 41.2362 27.1669C39.5636 27.1669 38.0643 26.9041 36.7382 26.3784C35.4122 25.8408 34.2832 25.1001 33.3514 24.1564C32.4314 23.2006 31.7206 22.0716 31.2189 20.7695C30.729 19.4553 30.4842 18.0277 30.4842 16.4866V0.967871H35.3046V16.4687C35.3046 17.4603 35.436 18.3563 35.6989 19.1567C35.9736 19.9571 36.3619 20.644 36.8637 21.2175C37.3773 21.779 37.9985 22.215 38.7274 22.5256C39.468 22.8363 40.3043 22.9916 41.2362 22.9916ZM62.5011 26.8802H57.6627V0.967871H62.5011V26.8802ZM90.4031 0.967871V26.8802H87.9302C87.548 26.8802 87.2254 26.8204 86.9625 26.701C86.7116 26.5695 86.4668 26.3545 86.2278 26.0559L72.6982 8.78099C72.7699 9.56948 72.8057 10.2982 72.8057 10.9672V26.8802H68.5587V0.967871H71.0854C71.2885 0.967871 71.4617 0.979817 71.6051 1.00371C71.7605 1.01566 71.8918 1.0515 71.9993 1.11123C72.1189 1.15902 72.2323 1.23667 72.3398 1.34419C72.4473 1.43977 72.5668 1.57118 72.6982 1.73843L86.2815 19.085C86.2457 18.6668 86.2159 18.2547 86.1919 17.8485C86.1681 17.4424 86.1561 17.0661 86.1561 16.7196V0.967871H90.4031ZM114.529 4.92819H106.716V26.8802H101.895V4.92819H94.0822V0.967871H114.529V4.92819ZM142.013 13.924C142.013 15.8236 141.695 17.5857 141.063 19.2104C140.441 20.8232 139.558 22.221 138.411 23.4037C137.264 24.5864 135.884 25.5123 134.271 26.1813C132.659 26.8383 130.867 27.1669 128.895 27.1669C126.936 27.1669 125.15 26.8383 123.537 26.1813C121.924 25.5123 120.538 24.5864 119.379 23.4037C118.233 22.221 117.343 20.8232 116.709 19.2104C116.076 17.5857 115.76 15.8236 115.76 13.924C115.76 12.0245 116.076 10.2684 116.709 8.65555C117.343 7.03081 118.233 5.62707 119.379 4.44435C120.538 3.26163 121.924 2.34174 123.537 1.68467C125.15 1.01566 126.936 0.681152 128.895 0.681152C130.209 0.681152 131.445 0.836459 132.605 1.14707C133.763 1.44573 134.827 1.87582 135.795 2.43731C136.762 2.98686 137.627 3.66185 138.393 4.46227C139.169 5.25075 139.827 6.13481 140.364 7.11443C140.902 8.09406 141.307 9.15731 141.583 10.3042C141.869 11.4511 142.013 12.6577 142.013 13.924ZM137.085 13.924C137.085 12.5024 136.893 11.2301 136.511 10.1071C136.129 8.97214 135.585 8.01043 134.881 7.22195C134.175 6.43347 133.315 5.83017 132.3 5.41203C131.297 4.9939 130.161 4.78483 128.895 4.78483C127.629 4.78483 126.488 4.9939 125.472 5.41203C124.469 5.83017 123.609 6.43347 122.892 7.22195C122.187 8.01043 121.643 8.97214 121.261 10.1071C120.879 11.2301 120.688 12.5024 120.688 13.924C120.688 15.3457 120.879 16.6239 121.261 17.7589C121.643 18.8819 122.187 19.8376 122.892 20.6261C123.609 21.4027 124.469 21.9999 125.472 22.4181C126.488 22.8363 127.629 23.0453 128.895 23.0453C130.161 23.0453 131.297 22.8363 132.3 22.4181C133.315 21.9999 134.175 21.4027 134.881 20.6261C135.585 19.8376 136.129 18.8819 136.511 17.7589C136.893 16.6239 137.085 15.3457 137.085 13.924Z" fill="#313131"/>
</g>
<defs>
<clipPath id="clip0_2_404">
<rect width="142.08" height="32" fill="white"/>
</clipPath>
</defs>
</svg>
